<svg width="445" height="122" viewBox="0 0 445 122" fill="none" xmlns="http://www.w3.org/2000/svg">
<g filter="url(#filter0_d_2_80)">
<path d="M76.548 43.3V69.7L66.248 80H36.248V110H44.248V114H5.24805V110H13.248V38H5.24805V34H67.248L76.548 43.3ZM36.248 76H53.5481V38H36.248V76ZM132.596 114H93.5957V110H101.596V38H93.5957V34H156.896V57H152.396V38H124.596V73H148.396V77H124.596V110H132.596V114ZM184.181 114L173.881 103.7V44.3L184.181 34H229.081L239.381 44.3V103.7L229.081 114H184.181ZM196.881 38V110H216.381V38H196.881ZM341.769 38H333.769V114H306.769L268.869 38V110H276.869V114H256.369V110H264.369V38H256.369V34H291.369L329.269 110V38H321.269V34H341.769V38ZM363.225 57H358.725V34H426.725V57H422.225V38H404.225V110H412.225V114H373.225V110H381.225V38H363.225V57Z" fill="#7F7E7E"/>
</g>
<g filter="url(#filter1_d_2_80)">
<path fill-rule="evenodd" clip-rule="evenodd" d="M84.548 43.3V56H61.5481V38H44.248V56H21.248V38H13.248V34H75.248L84.548 43.3ZM61.5481 59H84.548V67H61.5481V59ZM44.248 69V76H61.5481V69H84.548V69.7L74.2481 80H44.248V110H52.2481V114H13.248V110H21.248V80H35V78H21.248V69H44.248ZM44.248 67V59H21.248V67H44.248ZM109.596 69V110H101.596V114H140.596V110H132.596V77H156.396V73H132.596V69H109.596ZM181.881 69V103.7L192.181 114H237.081L247.381 103.7V69H224.381V110H204.881V69H181.881ZM204.881 67H181.881V59H204.881V67ZM224.381 67H247.381V59H224.381V67ZM272.369 69V110H264.369V114H284.869V110H276.869V69H272.369ZM276.869 67H272.369V59H276.869V67ZM292.328 69L314.769 114H341.769V69H337.269V110L316.823 69H292.328ZM315.826 67H291.331L287.342 59H311.836L315.826 67ZM337.269 67H341.769V59H337.269V67ZM132.596 67H109.596V59H132.596V67ZM109.596 56H132.596V38H160.396V56H164.896V34H101.596V38H109.596V56ZM181.881 56H204.881V38H224.381V56H247.381V44.3L237.081 34H192.181L181.881 44.3V56ZM272.369 56H276.869V38L285.845 56H310.34L299.369 34H264.369V38H272.369V56ZM341.769 56H337.269V38H329.269V34H349.769V38H341.769V56ZM366.725 56H371.225V38H389.225V56H412.225V38H430.225V56H434.725V34H366.725V56ZM389.225 110V59H412.225V67H396V69H412.225V110H420.225V114H381.225V110H389.225Z" fill="#D9D9D9"/>
</g>
<circle cx="438.5" cy="107.5" r="6.5" fill="#D9D9D9"/>
<defs>
<filter id="filter0_d_2_80" x="1.24805" y="34" width="429.477" height="88" filterUnits="userSpaceOnUse" color-interpolation-filters="sRGB">
<feFlood flood-opacity="0" result="BackgroundImageFix"/>
<feColorMatrix in="SourceAlpha" type="matrix" values="0 0 0 0 0 0 0 0 0 0 0 0 0 0 0 0 0 0 127 0" result="hardAlpha"/>
<feOffset dy="4"/>
<feGaussianBlur stdDeviation="2"/>
<feComposite in2="hardAlpha" operator="out"/>
<feColorMatrix type="matrix" values="0 0 0 0 0 0 0 0 0 0 0 0 0 0 0 0 0 0 0.25 0"/>
<feBlend mode="normal" in2="BackgroundImageFix" result="effect1_dropShadow_2_80"/>
<feBlend mode="normal" in="SourceGraphic" in2="effect1_dropShadow_2_80" result="shape"/>
</filter>
<filter id="filter1_d_2_80" x="9.24805" y="34" width="429.477" height="88" filterUnits="userSpaceOnUse" color-interpolation-filters="sRGB">
<feFlood flood-opacity="0" result="BackgroundImageFix"/>
<feColorMatrix in="SourceAlpha" type="matrix" values="0 0 0 0 0 0 0 0 0 0 0 0 0 0 0 0 0 0 127 0" result="hardAlpha"/>
<feOffset dy="4"/>
<feGaussianBlur stdDeviation="2"/>
<feComposite in2="hardAlpha" operator="out"/>
<feColorMatrix type="matrix" values="0 0 0 0 0 0 0 0 0 0 0 0 0 0 0 0 0 0 0.25 0"/>
<feBlend mode="normal" in2="BackgroundImageFix" result="effect1_dropShadow_2_80"/>
<feBlend mode="normal" in="SourceGraphic" in2="effect1_dropShadow_2_80" result="shape"/>
</filter>
</defs>
</svg>
